#!OML:ASF X:\für Bonn\!DataBase\2005_08_10_Bjorn_Final\c3d\bjorn.ASF
:FULLY-SPECIFIED
:DEGREES
96
root -20.1407 19.2144 -1.30867 1252.34 242.574 -171.749
lowerback -7.21777 3.25807 -1.0297
upperback 6.93565 4.89574 -4.62222
thorax 11.9089 2.45975 -3.60286
lowerneck -0.70512 -10.4239 5.36193
upperneck 8.12557 -14.5159 3.97415
head 2.63735 -6.98157 0.0383996
rclavicle 3.18055e-015 -3.97569e-014
rhumerus 41.0027 -2.79622 -33.7736
rradius 48.9387
rwrist -22.1866
rhand -10.4584 7.45185
rfingers 7.12502
rthumb 15.5421 -21.9436
lclavicle 3.18055e-015 -3.97569e-014
lhumerus -28.965 8.58588 80.0202
lradius 24.6409
lwrist -30.2457
lhand -15.8246 -5.64692
lfingers 7.12502
lthumb 10.3694 24.0774
rfemur -15.6322 -4.42876 11.3928
rtibia 32.443
rfoot -11.061 10.1295
rtoes -5.01985
lfemur 1.44915 -5.04641 -17.257
ltibia 25.4351
lfoot -10.7493 -10.7283
ltoes -5.64783
97
root -20.1878 19.2226 -1.31893 1252.41 242.401 -171.704
lowerback -7.22217 3.24374 -0.987625
upperback 6.90929 4.87112 -4.62296
thorax 11.8835 2.45195 -3.63135
lowerneck -0.644369 -10.4363 5.48236
upperneck 8.07915 -14.5312 4.01153
head 2.60516 -6.98793 0.0375271
rclavicle 1.15295e-014 2.54444e-014
rhumerus 40.8216 -2.40181 -33.0865
rradius 49.4122
rwrist -22.3021
rhand -8.94712 6.31973
rfingers 7.12502
rthumb 16.9973 -22.9566
lclavicle 1.15295e-014 2.54444e-014
lhumerus -29.267 9.54381 79.5066
lradius 24.0369
lwrist -31.1083
lhand -15.5903 -5.91483
lfingers 7.12502
lthumb 10.5954 23.7981
rfemur -15.5299 -4.56882 11.434
rtibia 32.3403
rfoot -11.1438 10.1142
rtoes -4.96037
lfemur 1.22089 -5.1387 -17.2422
ltibia 25.7809
lfoot -10.5685 -10.4495
ltoes -5.27318
98
root -20.2336 19.2315 -1.32845 1252.44 242.27 -171.65
lowerback -7.22002 3.2439 -0.930847
upperback 6.89831 4.86476 -4.62606
thorax 11.8747 2.45428 -3.66776
lowerneck -0.655573 -10.4353 5.47743
upperneck 8.11036 -14.5443 4.13163
head 2.6286 -6.98981 0.0721084
rclavicle -4.96962e-014 1.03368e-014
rhumerus 40.6503 -2.0956 -32.4937
rradius 49.9435
rwrist -22.4947
rhand -7.35176 5.21306
rfingers 7.12502
rthumb 18.5325 -23.9241
lclavicle -4.96962e-014 1.03368e-014
lhumerus -29.5693 10.4138 79.0165
lradius 23.4869
lwrist -31.8447
lhand -15.3972 -6.15354
lfingers 7.12502
lthumb 10.7817 23.5497
rfemur -15.4145 -4.72504 11.4728
rtibia 32.2383
rfoot -11.2079 10.1468
rtoes -4.74275
lfemur 1.01422 -5.21045 -17.2385
ltibia 26.1272
lfoot -10.4639 -10.1471
ltoes -5.00479
99
root -20.277 19.2407 -1.33784 1252.51 242.135 -171.595
lowerback -7.20492 3.24056 -0.880228
upperback 6.86089 4.85334 -4.63459
thorax 11.8272 2.45391 -3.70806
lowerneck -0.613494 -10.4471 5.43792
upperneck 8.10299 -14.5699 4.28909
head 2.6354 -7.0003 0.127451
rclavicle -7.15625e-015 2.8625e-014
rhumerus 40.4019 -1.77524 -31.9094
rradius 50.5645
rwrist -22.7381
rhand -5.74267 4.01002
rfingers 7.12502
rthumb 20.0797 -24.9724
lclavicle -7.15625e-015 2.8625e-014
lhumerus -29.8838 11.159 78.528
lradius 22.9586
lwrist -32.5213
lhand -15.1774 -6.25384
lfingers 7.12502
lthumb 10.9937 23.4383
rfemur -15.3407 -4.83953 11.5121
rtibia 32.1453
rfoot -11.2969 10.1277
rtoes -4.79521
lfemur 0.765587 -5.27357 -17.2351
ltibia 26.4669
lfoot -10.4466 -9.84018
ltoes -5.38172
100
root -20.319 19.2478 -1.34688 1252.52 242.051 -171.539
lowerback -7.17085 3.24289 -0.818769
upperback 6.84618 4.84766 -4.63756
thorax 11.795 2.45691 -3.74822
lowerneck -0.586812 -10.4373 5.36491
upperneck 8.11746 -14.5698 4.45886
head 2.65605 -6.99734 0.190078
rclavicle 4.96962e-015 6.91771e-014
rhumerus 40.1814 -1.49755 -31.403
rradius 51.1796
rwrist -22.9415
rhand -3.98027 2.82673
rfingers 7.12502
rthumb 21.7729 -25.9686
lclavicle 4.96962e-015 6.91771e-014
lhumerus -30.1774 12.0643 77.9847
lradius 22.4048
lwrist -33.3501
lhand -14.9305 -6.42505
lfingers 7.12502
lthumb 11.2318 23.2543
rfemur -15.2396 -4.94006 11.5512
rtibia 32.0556
rfoot -11.3483 10.1436
rtoes -4.83062
lfemur 0.568166 -5.32752 -17.2449
ltibia 26.7971
lfoot -10.5432 -9.49704
ltoes -6.11288
101
root -20.3593 19.2552 -1.35528 1252.54 241.951 -171.441
lowerback -7.16502 3.23875 -0.788098
upperback 6.83158 4.83795 -4.63747
thorax 11.7768 2.45508 -3.76725
lowerneck -0.590464 -10.4335 5.3313
upperneck 8.12696 -14.5734 4.55339
head 2.67085 -6.99679 0.222696
rclavicle -2.40529e-014 1.90833e-014
rhumerus 39.9766 -1.29677 -30.977
rradius 51.7187
rwrist -23.0519
rhand -2.1416 1.95306
rfingers 7.12502
rthumb 23.5376 -26.6267
lclavicle -2.40529e-014 1.90833e-014
lhumerus -30.4689 12.8526 77.4711
lradius 21.8835
lwrist -34.1331
lhand -14.6722 -6.56029
lfingers 7.12502
lthumb 11.4809 23.1053
rfemur -15.1715 -5.05817 11.562
rtibia 31.9756
rfoot -11.4003 10.1805
rtoes -4.54953
lfemur 0.322489 -5.34596 -17.2671
ltibia 27.1128
lfoot -10.653 -9.21872
ltoes -6.82629
102
root -20.3974 19.2614 -1.36325 1252.56 241.885 -171.379
lowerback -7.11141 3.24745 -0.724343
upperback 6.79768 4.8394 -4.64315
thorax 11.7117 2.46177 -3.81121
lowerneck -0.556506 -10.4384 5.29363
upperneck 8.17839 -14.591 4.65988
head 2.69469 -7.00225 0.260131
rclavicle -8.50798e-014 4.29375e-014
rhumerus 39.7247 -1.08213 -30.5743
rradius 52.2259
rwrist -23.2139
rhand -0.419861 1.3628
rfingers 7.12502
rthumb 25.1882 -26.9951
lclavicle -8.50798e-014 4.29375e-014
lhumerus -30.7938 13.6037 76.9285
lradius 21.378
lwrist -34.9368
lhand -14.4266 -6.68243
lfingers 7.12502
lthumb 11.7177 22.9698
rfemur -15.1004 -5.15404 11.5962
rtibia 31.9044
rfoot -11.4735 10.2099
rtoes -4.6341
lfemur 0.111246 -5.38462 -17.2851
ltibia 27.4102
lfoot -10.8267 -8.91
ltoes -7.49081
103
root -20.4344 19.2674 -1.37043 1252.58 241.82 -171.313
lowerback -7.07534 3.2514 -0.657666
upperback 6.77705 4.83565 -4.65204
thorax 11.6729 2.46633 -3.86056
lowerneck -0.548476 -10.4331 5.27439
upperneck 8.21654 -14.596 4.76296
head 2.71698 -7.00101 0.293017
rclavicle 7.35503e-015 3.18055e-015
rhumerus 39.4894 -0.951243 -30.2745
rradius 52.7253
rwrist -23.3332
rhand 1.23863 0.856744
rfingers 7.12502
rthumb 26.7762 -27.2681
lclavicle 7.35503e-015 3.18055e-015
lhumerus -31.0935 14.3435 76.3745
lradius 20.877
lwrist -35.7199
lhand -14.1792 -6.80768
lfingers 7.12502
lthumb 11.9563 22.8309
rfemur -15.0369 -5.29219 11.6242
rtibia 31.8411
rfoot -11.5334 10.2716
rtoes -4.67213
lfemur -0.102305 -5.3748 -17.3003
ltibia 27.6832
lfoot -11.0297 -8.63927
ltoes -8.50194
104
root -20.4696 19.2721 -1.37778 1252.58 241.781 -171.245
lowerback -7.01093 3.27062 -0.587257
upperback 6.75503 4.85199 -4.67398
thorax 11.6187 2.48147 -3.92403
lowerneck -0.520121 -10.4343 5.31288
upperneck 8.21991 -14.6054 4.85112
head 2.71816 -7.00275 0.315464
rclavicle 7.45443e-014 -1.07344e-013
rhumerus 39.2355 -0.806782 -30.0038
rradius 53.2066
rwrist -23.5636
rhand 2.52952 0.42577
rfingers 7.12502
rthumb 28.0109 -27.5038
lclavicle 7.45443e-014 -1.07344e-013
lhumerus -31.38 14.9893 75.817
lradius 20.3921
lwrist -36.4512
lhand -13.9708 -6.87131
lfingers 7.12502
lthumb 12.1573 22.7554
rfemur -14.9713 -5.37389 11.6559
rtibia 31.7901
rfoot -11.583 10.3076
rtoes -4.60813
lfemur -0.294027 -5.33011 -17.304
ltibia 27.9241
lfoot -11.167 -8.43333
ltoes -9.14875
105
root -20.5038 19.2771 -1.38423 1252.54 241.736 -171.133
lowerback -6.94426 3.2884 -0.524314
upperback 6.72738 4.86841 -4.71214
thorax 11.5578 2.49671 -4.00124
lowerneck -0.484944 -10.4436 5.37676
upperneck 8.21639 -14.6221 4.90746
head 2.71104 -7.0088 0.325168
rclavicle -9.74045e-015 3.18055e-015
rhumerus 38.9717 -0.720932 -29.8749
rradius 53.6858
rwrist -23.7001
rhand 3.72446 0.0435527
rfingers 7.12502
rthumb 29.1526 -27.6939
lclavicle -9.74045e-015 3.18055e-015
lhumerus -31.6502 15.5388 75.2763
lradius 19.9139
lwrist -37.0632
lhand -13.7283 -6.95183
lfingers 7.12502
lthumb 12.3911 22.6609
rfemur -14.9119 -5.49416 11.655
rtibia 31.7382
rfoot -11.638 10.3774
rtoes -4.63993
lfemur -0.478694 -5.30756 -17.3449
ltibia 28.1394
lfoot -11.383 -8.21153
ltoes -9.97057
106
root -20.5373 19.2808 -1.38952 1252.53 241.715 -171.058
lowerback -6.88928 3.31167 -0.448042
upperback 6.71361 4.8909 -4.73992
thorax 11.5207 2.51552 -4.07305
lowerneck -0.448173 -10.4481 5.45425
upperneck 8.18491 -14.631 4.97396
head 2.69399 -7.01151 0.337194
rclavicle -9.20373e-014 2.3059e-014
rhumerus 38.7396 -0.720007 -29.8714
rradius 54.1368
rwrist -23.7268
rhand 4.79787 -0.304471
rfingers 7.12502
rthumb 30.1772 -27.8595
lclavicle -9.20373e-014 2.3059e-014
lhumerus -31.9057 16.0851 74.7465
lradius 19.4607
lwrist -37.7141
lhand -13.4922 -6.95268
lfingers 7.12502
lthumb 12.6187 22.6462
rfemur -14.8477 -5.61856 11.6737
rtibia 31.6929
rfoot -11.6872 10.4831
rtoes -4.64459
lfemur -0.643136 -5.24076 -17.36
ltibia 28.3213
lfoot -11.5577 -8.00593
ltoes -10.8355
